<svg xmlns="http://www.w3.org/2000/svg">
    <symbol id="face" viewBox="0 0 512 512">
        <path d="m330.941406 319.019531c-23.035156-11.789062-48.949218-18.019531-74.941406-18.019531-52.636719 0-101.167969 25.050781-131.992188 66.089844-4.976562 6.625-3.640624 16.027344 2.984376 21.003906s16.027343 3.636719 21-2.988281c25.828124-34.382813 65.195312-54.105469 108.007812-54.105469s82.179688 19.722656 108.007812 54.105469c4.972657 6.625 14.375 7.960937 21 2.988281 6.625-4.976562 7.960938-14.378906 2.984376-21.003906-15.058594-20.054688-34.789063-36.675782-57.050782-48.070313zm0 0"/><path d="m256 0c-140.96875 0-256 115.050781-256 256 0 140.96875 115.050781 256 256 256 140.96875 0 256-115.050781 256-256 0-140.96875-115.050781-256-256-256zm0 482c-124.617188 0-226-101.382812-226-226s101.382812-226 226-226 226 101.382812 226 226-101.382812 226-226 226zm0 0"/><path d="m125.394531 266.605469c5.855469 5.859375 15.355469 5.859375 21.210938 0l60-60c5.859375-5.859375 5.859375-15.355469 0-21.210938l-60-60c-5.855469-5.859375-15.351563-5.859375-21.210938 0-5.859375 5.855469-5.859375 15.351563 0 21.210938l49.390625 49.394531-49.390625 49.394531c-5.859375 5.855469-5.859375 15.355469 0 21.210938zm0 0"/><path d="m386.605469 125.394531c-5.855469-5.859375-15.355469-5.859375-21.210938 0l-60 60c-5.859375 5.859375-5.859375 15.355469 0 21.210938l60 60c5.855469 5.859375 15.355469 5.859375 21.210938 0 5.859375-5.855469 5.859375-15.351563 0-21.210938l-49.390625-49.394531 49.390625-49.394531c5.859375-5.855469 5.859375-15.355469 0-21.210938zm0 0"/>
    </symbol>
    <symbol  id="smile" viewBox="0 0 368 368">
        <path d="M184,0C82.544,0,0,82.544,0,184s82.544,184,184,184s184-82.544,184-184S285.456,0,184,0z M184,352c-92.64,0-168-75.36-168-168S91.36,16,184,16s168,75.36,168,168S276.64,352,184,352z"/>
        <path d="M144,152c0-13.232-10.768-24-24-24s-24,10.768-24,24s10.768,24,24,24S144,165.232,144,152z M112,152c0-4.408,3.592-8,8-8s8,3.592,8,8s-3.592,8-8,8S112,156.408,112,152z"/>
        <path d="M248,128c-13.232,0-24,10.768-24,24s10.768,24,24,24s24-10.768,24-24S261.232,128,248,128z M248,160c-4.408,0-8-3.592-8-8s3.592-8,8-8c4.408,0,8,3.592,8,8S252.408,160,248,160z"/>
        <path d="M261.336,226.04c-3.296-2.952-8.36-2.664-11.296,0.624C233.352,245.312,209.288,256,184,256c-25.28,0-49.352-10.688-66.04-29.336c-2.952-3.288-8-3.576-11.296-0.624c-3.296,2.944-3.568,8-0.624,11.296C125.76,259.368,154.176,272,184,272c29.832,0,58.248-12.64,77.96-34.664C264.904,234.04,264.624,228.984,261.336,226.04z"/>
    </symbol>
</svg>